<svg width="26.000000" height="26.000000" viewBox="0 0 26 26" fill="none" xmlns="http://www.w3.org/2000/svg" xmlns:xlink="http://www.w3.org/1999/xlink">
	<desc>
			Created with Pixso.
	</desc>
	<defs/>
	<path id="Vector" d="M18.53 1L7.46 1C3.89 1 1 3.89 1 7.46L1 18.53C1 22.1 3.89 25 7.46 25L18.53 25C22.1 25 25 22.1 25 18.53L25 7.46C25 3.89 22.1 1 18.53 1L18.53 1Z" fill="#FFFFFF" fill-opacity="0" fill-rule="nonzero"/>
	<path id="Vector" d="M7.46 1C3.89 1 1 3.89 1 7.46L1 18.53C1 22.1 3.89 25 7.46 25L18.53 25C22.1 25 25 22.1 25 18.53L25 7.46C25 3.89 22.1 1 18.53 1L18.53 1L7.46 1Z" stroke="#FFFFFF" stroke-opacity="1.000000" stroke-width="2.000000"/>
	<path id="Vector" d="M13 18.79C9.8 18.79 7.2 16.19 7.2 13C7.2 9.8 9.8 7.2 13 7.2C16.19 7.2 18.79 9.8 18.79 13C18.79 16.19 16.19 18.79 13 18.79Z" stroke="#FFFFFF" stroke-opacity="1.000000" stroke-width="2.000000"/>
	<path id="Vector" d="M21.27 5.96C21.27 6.65 20.72 7.2 20.03 7.2C19.34 7.2 18.79 6.65 18.79 5.96C18.79 5.27 19.34 4.72 20.03 4.72C20.72 4.72 21.27 5.27 21.27 5.96Z" fill="#FFFFFF" fill-opacity="1.000000" fill-rule="evenodd"/>
</svg>
