<svg width="80.000000" height="64.000000" viewBox="0 0 80 64" fill="none" xmlns="http://www.w3.org/2000/svg" xmlns:xlink="http://www.w3.org/1999/xlink">
	<desc>
			Created with Pixso.
	</desc>
	<defs/>
	<path id="“" d="M22.05 36.57C26.15 36.57 29.4 37.85 31.79 40.42C34.35 42.82 35.64 46.03 35.64 50.04C35.64 54.37 34.1 57.82 31.02 60.39C28.11 62.79 24.1 64 18.97 64C12.99 64 8.29 61.83 4.87 57.5C1.62 53.17 0 46.99 0 38.97C0 31.75 1.7 25.1 5.12 19C8.54 12.75 13.67 6.49 20.51 0.24C20.68 0.08 20.94 0 21.28 0C21.79 0 22.22 0.24 22.56 0.72C22.9 1.2 22.9 1.6 22.56 1.92C14.18 9.94 10 19.4 10 30.31C10 34.8 10.85 38.09 12.56 40.18C14.1 37.77 17.26 36.57 22.05 36.57ZM66.41 36.57C70.51 36.57 73.76 37.85 76.15 40.42C78.71 42.82 80 46.03 80 50.04C80 54.37 78.46 57.82 75.38 60.39C72.47 62.79 68.46 64 63.33 64C57.35 64 52.64 61.83 49.23 57.5C45.98 53.17 44.35 46.99 44.35 38.97C44.35 31.75 46.06 25.1 49.48 19C52.9 12.75 58.03 6.49 64.87 0.24C65.04 0.08 65.29 0 65.64 0C66.15 0 66.58 0.24 66.92 0.72C67.26 1.2 67.26 1.6 66.92 1.92C58.54 9.94 54.35 19.4 54.35 30.31C54.35 34.8 55.21 38.09 56.92 40.18C58.46 37.77 61.62 36.57 66.41 36.57Z" fill="#FFFFFF" fill-opacity="1.000000" fill-rule="nonzero"/>
</svg>
