<svg width="54.231934" height="52.841797" viewBox="0 0 54.2319 52.8418" fill="none" xmlns="http://www.w3.org/2000/svg" xmlns:xlink="http://www.w3.org/1999/xlink">
	<desc>
			Created with Pixso.
	</desc>
	<defs/>
	<path id="Vector 7" d="M14.65 12.03C18.67 1.69 40.54 -3.82 47.05 15.88L48.3 15.88L46.91 0.18L45.66 0.18C45.55 2.49 44.97 3.21 43.45 3.49C24.48 -5.19 11.74 4.86 7.87 11.34C17.39 15.64 14.88 31.04 12.44 38.2C17.86 30.27 17.28 23.23 16.31 20.71C17.97 22.8 18.67 25.39 17.97 29.52C14.66 49.33 24.4 52.34 24.9 52.39C33.9 53.36 41.23 52.26 48.57 48.26L48.57 30.07C48.57 25.89 52.26 25.3 54.11 25.53L54.11 24.29L34.73 24.29L34.73 25.67C39.85 25.39 41.1 27.73 41.23 30.07L41.23 47.57C33.76 51.7 25.77 50.63 22.27 48.12C20.83 45.2 19.8 41.48 21.99 38.2C24.65 34.22 30.99 32 31.13 30.35C31.16 29.97 30.44 29.44 29.72 28.91C29.16 28.5 28.6 28.09 28.36 27.73C27.87 26.77 28.28 26.23 28.6 25.81C28.82 25.51 29 25.27 28.77 24.98C28.08 25.21 26.7 25.61 26.7 25.39C26.7 25.17 27.71 24.29 28.22 23.87C27.67 22.64 25.87 23.46 25.17 22.64C24.99 22.1 25.41 21.28 25.79 20.55C26.18 19.8 26.52 19.12 26.14 18.92C23.65 17.54 21.02 17.79 19.77 16.99C17 15.2 16.45 12.99 14.65 12.03ZM2.33 18.09C4.61 15.93 6.85 13.45 7.59 12.44C7.59 12.95 7.01 14.78 4.68 18.09C2.36 21.39 1.68 25.53 1.64 27.18C-0.3 24.43 -0.72 20.98 2.33 18.09ZM9.67 15.2C9.97 18.69 8.86 21.63 7.29 25.75C6.7 27.31 6.04 29.04 5.37 31.04C2.94 38.31 4.4 41.65 8.28 46.88C3.3 42.61 -0.41 38.45 3.57 29.52C5.73 24.7 7.45 22.77 9.67 15.2ZM11.98 29.76C12.68 25.98 13.4 22.1 12.57 18.23C12.02 24.98 10.56 28.7 9.67 31.45C6.01 42.69 12.3 46.74 17.28 49.5C12.57 45.78 11.61 42.55 11.19 39.17C10.81 36.13 11.39 32.98 11.98 29.76Z" fill="#FFFFFF" fill-opacity="1.000000" fill-rule="evenodd"/>
	<path id="Vector 7" d="M14.65 12.03C16.45 12.99 17 15.2 19.77 16.99C21.02 17.79 23.65 17.54 26.14 18.92C26.89 19.33 24.81 21.55 25.17 22.64C25.87 23.46 27.67 22.64 28.22 23.87C27.71 24.29 26.7 25.17 26.7 25.39C26.7 25.61 28.08 25.21 28.77 24.98C29.33 25.67 27.53 26.08 28.36 27.73C28.91 28.56 31.18 29.67 31.13 30.35C30.99 32 24.65 34.22 21.99 38.2C19.8 41.48 20.83 45.2 22.27 48.12C25.77 50.63 33.76 51.7 41.23 47.57L41.23 30.07C41.1 27.73 39.85 25.39 34.73 25.67L34.73 24.29L54.11 24.29L54.11 25.53C52.26 25.3 48.57 25.89 48.57 30.07L48.57 48.26C41.23 52.26 33.9 53.36 24.9 52.39C24.4 52.34 14.66 49.33 17.97 29.52C18.67 25.39 17.97 22.8 16.31 20.71C17.28 23.23 17.86 30.27 12.44 38.2C14.88 31.04 17.39 15.64 7.87 11.34C11.74 4.86 24.48 -5.19 43.45 3.49C44.97 3.21 45.55 2.49 45.66 0.18L46.91 0.18L48.3 15.88L47.05 15.88C40.54 -3.82 18.67 1.69 14.65 12.03ZM2.33 18.09C-0.72 20.98 -0.3 24.43 1.64 27.18C1.68 25.53 2.36 21.39 4.68 18.09C7.01 14.78 7.59 12.95 7.59 12.44C6.85 13.45 4.61 15.93 2.33 18.09ZM5.37 31.04C2.94 38.31 4.4 41.65 8.28 46.88C3.3 42.61 -0.41 38.45 3.57 29.52C5.73 24.7 7.45 22.77 9.67 15.2C10.08 20.02 7.81 23.76 5.37 31.04ZM11.19 39.17C11.61 42.55 12.57 45.78 17.28 49.5C12.3 46.74 6.01 42.69 9.67 31.45C10.56 28.7 12.02 24.98 12.57 18.23C14.1 25.39 10.36 32.55 11.19 39.17Z" stroke="#FFFFFF" stroke-opacity="1.000000" stroke-width="0.231760" stroke-linejoin="round"/>
</svg>
