<svg width="703.507080" height="237.423828" viewBox="0 0 703.507 237.424" fill="none" xmlns="http://www.w3.org/2000/svg" xmlns:xlink="http://www.w3.org/1999/xlink">
	<desc>
			Created with Pixso.
	</desc>
	<defs/>
	<path id="Vector 7" d="M160.82 82.62C138.52 15.12 63.57 34.01 49.81 69.41C55.98 72.71 57.88 80.26 67.36 86.4C71.63 89.16 80.65 88.29 89.18 93.01C90.48 93.72 89.3 96.02 87.98 98.6C86.68 101.13 85.25 103.92 85.86 105.75C88.24 108.59 94.4 105.75 96.3 110C94.56 111.42 91.08 114.44 91.08 115.19C91.08 115.95 95.83 114.56 98.2 113.78C98.99 114.77 98.37 115.59 97.6 116.62C96.51 118.07 95.12 119.92 96.78 123.22C97.6 124.45 99.53 125.86 101.43 127.25C103.92 129.07 106.37 130.87 106.26 132.19C105.79 137.85 84.06 145.45 74.95 159.09C67.45 170.33 70.97 183.05 75.9 193.08C87.92 201.68 115.28 205.35 140.89 191.19L140.89 131.24C140.42 123.22 136.15 115.19 118.6 116.14L118.6 111.42L185.01 111.42L185.01 115.67C178.69 114.88 166.04 116.89 166.04 131.24L166.04 193.55C140.89 207.24 115.75 211.02 84.92 207.71C83.21 207.53 49.83 197.23 61.2 129.35C63.57 115.19 61.2 106.32 55.5 99.14C58.82 107.8 60.82 131.9 42.22 159.09C50.6 134.55 59.2 81.77 26.57 67.05C39.85 44.86 83.49 10.4 148.48 40.14C153.7 39.2 155.69 36.74 156.07 28.81L160.34 28.81L165.09 82.62L160.82 82.62ZM25.62 70.82C23.09 74.28 15.39 82.76 7.59 90.18C-2.85 100.09 -1.42 111.89 5.22 121.33C5.38 115.67 7.68 101.51 15.65 90.18C23.62 78.85 25.62 72.55 25.62 70.82ZM18.03 134.55C20.32 127.7 22.57 121.77 24.6 116.42C29.96 102.29 33.77 92.25 32.73 80.26C25.14 106.23 19.24 112.83 11.86 129.35C-1.8 159.94 10.91 174.2 27.99 188.83C14.71 170.89 9.68 159.47 18.03 134.55ZM40.67 130.17C38.64 141.19 36.64 151.99 37.95 162.4C39.41 173.98 42.69 185.05 58.82 197.8C41.75 188.36 20.21 174.48 32.73 135.96C35.8 126.52 40.8 113.78 42.69 90.65C45.52 103.92 43.07 117.2 40.67 130.17Z" fill="#FFFFFF" fill-opacity="1.000000" fill-rule="evenodd"/>
	<path id="Vector 7" d="M49.81 69.41C55.98 72.71 57.88 80.26 67.36 86.4C71.63 89.16 80.65 88.29 89.18 93.01C91.75 94.42 84.62 102.04 85.86 105.75C88.24 108.59 94.4 105.75 96.3 110C94.56 111.42 91.08 114.44 91.08 115.19C91.08 115.95 95.83 114.56 98.2 113.78C100.1 116.14 93.93 117.55 96.78 123.22C98.67 126.05 106.46 129.86 106.26 132.19C105.79 137.85 84.06 145.45 74.95 159.09C67.45 170.33 70.97 183.05 75.9 193.08C87.92 201.68 115.28 205.35 140.89 191.19L140.89 131.24C140.42 123.22 136.15 115.19 118.6 116.14L118.6 111.42L185.01 111.42L185.01 115.67C178.69 114.88 166.04 116.89 166.04 131.24L166.04 193.55C140.89 207.24 115.75 211.02 84.92 207.71C83.21 207.53 49.83 197.23 61.2 129.35C63.57 115.19 61.2 106.32 55.5 99.14C58.82 107.8 60.82 131.9 42.22 159.09C50.6 134.55 59.2 81.77 26.57 67.05C39.85 44.86 83.49 10.4 148.48 40.14C153.7 39.2 155.69 36.74 156.07 28.81L160.34 28.81L165.09 82.62L160.82 82.62C138.52 15.12 63.57 34.01 49.81 69.41ZM7.59 90.18C-2.85 100.09 -1.42 111.89 5.22 121.33C5.38 115.67 7.68 101.51 15.65 90.18C23.62 78.85 25.62 72.55 25.62 70.82C23.09 74.28 15.39 82.76 7.59 90.18ZM18.03 134.55C9.68 159.47 14.71 170.89 27.99 188.83C10.91 174.2 -1.8 159.94 11.86 129.35C19.24 112.83 25.14 106.23 32.73 80.26C34.16 96.78 26.38 109.62 18.03 134.55ZM37.95 162.4C39.41 173.98 42.69 185.05 58.82 197.8C41.75 188.36 20.21 174.48 32.73 135.96C35.8 126.52 40.8 113.78 42.69 90.65C47.91 115.19 35.1 139.74 37.95 162.4Z" stroke="#FFFFFF" stroke-opacity="0" stroke-width="0.794060" stroke-linejoin="round"/>
	<path id="GULDANA" d="M278.48 58.29Q280.75 57.4 283.37 57.4Q287.04 57.4 291.39 60.9Q295.76 64.4 296.29 67.98L298.21 67.98L297.34 55.31L295.33 55.31Q295.33 56.6 294.77 56.94Q294.56 57.06 294.29 57.06Q293.84 57.06 289.81 55.76Q285.8 54.44 283.28 54.44Q280.8 54.44 278.39 54.84Q274 55.57 269.83 57.64Q268.26 58.41 266.82 59.37Q262.31 62.35 259 67.15Q257.47 69.35 256.48 71.77Q254.62 76.31 254.62 81.61Q254.62 85.73 255.87 89.43Q257.73 94.99 262.39 99.61Q265.26 102.44 268.69 104.23Q274.53 107.28 281.96 107.28Q288.96 107.28 293.67 104.7Q298.38 102.12 299.88 99.41L299.88 84.74Q300.66 82.99 305.38 82.99L305.38 81.16L283.28 81.16L283.28 82.99Q288 82.99 288.79 84.74L288.79 103.53Q285.8 104.32 282.13 104.32Q279.91 104.32 277.91 103.64Q274.19 102.38 271.26 98.77Q266.78 93.23 266.78 81.44Q266.78 71.29 271.41 64.36Q274.38 59.88 278.48 58.29ZM356.8 103.32Q354.69 104.32 352.1 104.32Q348.8 104.32 346.38 102.85Q344.46 101.69 343.1 99.61Q340.05 94.87 340.05 85.98L340.05 58.9Q340.84 57.15 345.56 57.15L345.56 55.31L323.46 55.31L323.46 57.15Q328.18 57.15 328.96 58.9L328.96 84.74Q328.96 96.83 334.99 102.43Q340.21 107.28 349.93 107.28Q353.85 107.28 357.09 105.79Q360.11 104.39 362.53 101.7Q367.56 96.11 367.56 84.74L367.56 58.9Q368.35 57.15 373.06 57.15L373.06 55.31L359.1 55.31L359.1 57.15Q363.81 57.15 364.6 58.9L364.6 86.49Q364.6 94.7 361.19 99.52Q359.33 102.13 356.8 103.32ZM393.5 104.57L393.5 106.41L431.86 106.41L433.95 97.94L432.2 97.94Q430.46 102.48 428.28 103.44L410.11 103.44L410.11 58.9Q410.9 57.15 415.61 57.15L415.61 55.31L393.5 55.31L393.5 57.15Q398.23 57.15 399.02 58.9L399.02 102.83Q398.23 104.57 393.5 104.57ZM546.02 104.57L546.02 106.41L568.2 106.41L568.2 104.57Q563.38 104.57 562.66 102.86Q562.64 102.8 562.62 102.74L545.49 55.31L538.41 55.31L521.48 102.74Q521.46 102.78 521.44 102.83Q520.66 104.57 515.98 104.57L515.98 106.41L530.29 106.41L530.29 104.57Q525.75 104.57 524.87 103L529.41 90.16L546.2 90.16L551.08 103.53Q550.03 104.57 546.02 104.57ZM585.57 104.57L585.57 106.41L599.56 106.41L599.56 104.57Q594.85 104.57 594.06 102.83L594.06 63.16L625.32 106.41L629.16 106.41L629.16 58.9Q629.95 57.15 634.66 57.15L634.66 55.31L620.7 55.31L620.7 57.15Q625.41 57.15 626.2 58.9L626.2 90.69L600.35 55.31L585.57 55.31L585.57 57.15Q590.31 57.15 591.1 58.9L591.1 102.83Q590.31 104.57 585.57 104.57ZM681.32 104.57L681.32 106.41L703.5 106.41L703.5 104.57Q698.68 104.57 697.96 102.86Q697.93 102.8 697.92 102.74L680.79 55.31L673.71 55.31L656.78 102.74Q656.76 102.78 656.74 102.83Q655.96 104.57 651.28 104.57L651.28 106.41L665.59 106.41L665.59 104.57Q661.04 104.57 660.17 103L664.71 90.16L681.5 90.16L686.38 103.53Q685.33 104.57 681.32 104.57ZM452.72 104.66L452.72 106.49L473.87 106.49Q480.72 106.49 486.19 103.74Q489.57 102.04 492.43 99.29Q495.17 96.64 496.9 93.44Q499.89 87.94 499.89 80.82Q499.89 74.08 497.1 68.81Q495.27 65.35 492.24 62.52Q490.08 60.51 487.6 59.07Q481.28 55.4 472.83 55.4L452.72 55.4L452.72 57.23Q457.45 57.23 458.24 58.98L458.24 102.91Q457.45 104.66 452.72 104.66ZM469.33 103.53L469.33 57.94L472.83 57.94Q475.34 57.94 477.53 58.78Q481.04 60.13 483.73 63.65Q488.1 69.37 488.1 80.9Q488.1 92.36 483.94 97.94Q481.08 101.81 477.36 103Q475.7 103.53 473.87 103.53L469.33 103.53ZM530.46 87.28L537.71 66.94L545.15 87.28L530.46 87.28ZM665.76 87.28L673.01 66.94L680.45 87.28L665.76 87.28Z" fill="#FFFFFF" fill-opacity="1.000000" fill-rule="evenodd"/>
	<path id="GULDANA" d="M283.37 57.4Q276.03 57.4 271.41 64.36Q266.78 71.29 266.78 81.44Q266.78 93.23 271.26 98.77Q275.76 104.32 282.13 104.32Q285.8 104.32 288.79 103.53L288.79 84.74Q288 82.99 283.28 82.99L283.28 81.16L305.38 81.16L305.38 82.99Q300.66 82.99 299.88 84.74L299.88 99.41Q298.38 102.12 293.67 104.7Q288.96 107.28 281.96 107.28Q270.17 107.28 262.39 99.61Q254.62 91.91 254.62 81.61Q254.62 73.48 259 67.15Q263.37 60.82 269.83 57.64Q276.29 54.44 283.28 54.44Q285.8 54.44 289.81 55.76Q293.84 57.06 294.29 57.06Q295.33 57.06 295.33 55.31L297.34 55.31L298.21 67.98L296.29 67.98Q295.76 64.4 291.39 60.9Q287.04 57.4 283.37 57.4ZM352.1 104.32Q357.77 104.32 361.19 99.52Q364.6 94.7 364.6 86.49L364.6 58.9Q363.81 57.15 359.1 57.15L359.1 55.31L373.06 55.31L373.06 57.15Q368.35 57.15 367.56 58.9L367.56 84.74Q367.56 96.11 362.53 101.7Q357.52 107.28 349.93 107.28Q328.96 107.28 328.96 84.74L328.96 58.9Q328.18 57.15 323.46 57.15L323.46 55.31L345.56 55.31L345.56 57.15Q340.84 57.15 340.05 58.9L340.05 85.98Q340.05 94.87 343.1 99.61Q346.17 104.32 352.1 104.32ZM393.5 106.41L393.5 104.57Q398.23 104.57 399.02 102.83L399.02 58.9Q398.23 57.15 393.5 57.15L393.5 55.31L415.61 55.31L415.61 57.15Q410.9 57.15 410.11 58.9L410.11 103.44L428.28 103.44Q430.46 102.48 432.2 97.94L433.95 97.94L431.86 106.41L393.5 106.41ZM452.72 106.49L452.72 104.66Q457.45 104.66 458.24 102.91L458.24 58.98Q457.45 57.23 452.72 57.23L452.72 55.4L472.83 55.4Q484.6 55.4 492.24 62.52Q499.89 69.64 499.89 80.82Q499.89 92.08 492.43 99.29Q484.96 106.49 473.87 106.49L452.72 106.49ZM469.33 57.94L469.33 103.53L473.87 103.53Q479.8 103.53 483.94 97.94Q488.1 92.36 488.1 80.9Q488.1 69.37 483.73 63.65Q479.38 57.94 472.83 57.94L469.33 57.94ZM546.02 106.41L546.02 104.57Q550.03 104.57 551.08 103.53L546.2 90.16L529.41 90.16L524.87 103Q525.75 104.57 530.29 104.57L530.29 106.41L515.98 106.41L515.98 104.57Q520.78 104.57 521.48 102.74L538.41 55.31L545.49 55.31L562.62 102.74Q563.21 104.57 568.2 104.57L568.2 106.41L546.02 106.41ZM537.71 66.94L530.46 87.28L545.15 87.28L537.71 66.94ZM585.57 106.41L585.57 104.57Q590.31 104.57 591.1 102.83L591.1 58.9Q590.31 57.15 585.57 57.15L585.57 55.31L600.35 55.31L626.2 90.69L626.2 58.9Q625.41 57.15 620.7 57.15L620.7 55.31L634.66 55.31L634.66 57.15Q629.95 57.15 629.16 58.9L629.16 106.41L625.32 106.41L594.06 63.16L594.06 102.83Q594.85 104.57 599.56 104.57L599.56 106.41L585.57 106.41ZM681.32 106.41L681.32 104.57Q685.33 104.57 686.38 103.53L681.5 90.16L664.71 90.16L660.17 103Q661.04 104.57 665.59 104.57L665.59 106.41L651.28 106.41L651.28 104.57Q656.08 104.57 656.78 102.74L673.71 55.31L680.79 55.31L697.92 102.74Q698.51 104.57 703.5 104.57L703.5 106.41L681.32 106.41ZM673.01 66.94L665.76 87.28L680.45 87.28L673.01 66.94Z" stroke="#FFFFFF" stroke-opacity="0" stroke-width="1.588120"/>
	<path id="beauty salon" d="M263.31 151.18Q263.36 151.18 265.72 151.36L265.72 173.05Q266.91 173.05 269 171.6Q269.23 171.79 269.48 171.96Q271.15 173.05 273.53 173.05Q276.48 173.05 278.57 171.71Q279.21 171.3 279.77 170.76Q280.06 170.49 280.31 170.18Q282.15 167.96 282.15 164.21Q282.15 161.78 281.37 159.94Q280.59 158.11 279.35 157.18Q278.11 156.25 276.86 155.81Q275.77 155.42 274.66 155.37Q274.52 155.36 274.37 155.36Q271.3 155.36 269.48 156.87Q269.31 157.01 269.15 157.16L269.15 148.66Q268.27 148.66 266.15 149.48Q264.04 150.3 263.31 150.3L263.31 151.18ZM598.5 171.87L598.5 172.67L606.74 172.67L606.74 171.87Q604.68 171.87 604.34 171.11L604.34 148.66Q603.45 148.66 601.34 149.48Q599.23 150.3 598.5 150.3L598.5 151.18Q598.54 151.18 600.9 151.36L600.9 171.11Q600.56 171.87 598.5 171.87ZM429.46 155.9L429.46 150.38L427.82 150.38Q427.82 152.51 426.81 153.9Q426.61 154.17 426.37 154.41Q425.32 155.5 424.08 155.79Q423.62 155.9 423.13 155.9L423.13 157.05L425.8 157.05L425.8 168.86Q425.8 170.88 426.81 171.93Q427.9 173.05 430.15 173.05Q432.16 173.05 433.32 172.06Q434.35 171.19 434.73 169.55L433.8 169.09Q433.54 170.27 432.84 170.94Q432.13 171.6 431.44 171.6Q430.4 171.6 429.96 171.09Q429.92 171.04 429.88 170.98Q429.46 170.35 429.46 169.16L429.46 157.05L432.74 157.05L432.74 155.9L429.46 155.9ZM309.69 167.22Q308.97 165.5 308.94 163.49L321.18 163.49Q321.18 160.88 320.04 158.95Q319.68 158.34 319.2 157.79Q318.97 157.53 318.72 157.3Q316.75 155.52 313.18 155.52Q310.35 155.52 308.47 156.86Q307.89 157.27 307.4 157.81Q306.7 158.58 306.24 159.47Q305.32 161.22 305.32 163.45Q305.32 166.2 306.09 168.18Q306.85 170.16 308.14 171.17Q309.44 172.18 310.77 172.62Q311.13 172.73 311.49 172.82Q312.49 173.05 313.55 173.05Q316.45 173.05 318.22 172.22Q318.68 172 319.09 171.72Q320.28 170.91 321.1 169.55L320.18 169.09Q319.25 170.25 318.04 170.88Q316.63 171.6 314.85 171.6Q314.5 171.6 314.15 171.54Q312.31 171.21 310.79 169.15Q310.12 168.24 309.69 167.22ZM347.53 158.79Q347.32 158.72 347.1 158.72Q347.17 158.42 347.33 158.17Q348.12 156.89 350.99 156.89Q352.5 156.89 353.36 157.64Q353.71 157.94 353.96 158.38Q354.79 159.87 354.79 163.07Q354.03 163.29 352.25 163.69Q350.49 164.09 349.3 164.42Q348.12 164.74 346.79 165.28Q345.46 165.81 344.75 166.61Q344.29 167.14 344.13 167.75Q344.05 168.06 344.05 168.4Q344.05 170.26 344.95 171.37Q346.32 173.05 349.76 173.05Q352.96 173.05 355.15 171.57Q355.26 171.49 355.37 171.42Q355.71 172.09 356.26 172.47Q356.98 172.98 358.07 172.98Q360.01 172.98 360.8 172.49Q361.08 172.31 361.25 172.05Q361.58 171.6 361.58 170.92L360.9 170.92Q360.9 171.01 360.87 171.1Q360.8 171.37 360.49 171.57Q360.33 171.68 360.15 171.74Q359.89 171.83 359.59 171.83Q359.44 171.83 359.3 171.79Q358.92 171.68 358.63 171.27Q358.23 170.69 358.23 169.47L358.23 161.92Q358.23 159.58 357.13 157.98Q356.88 157.61 356.56 157.28Q354.91 155.52 351.37 155.52Q348.35 155.52 346.72 156.63Q345.91 157.17 345.5 157.93Q345.08 158.71 345.08 159.71Q345.08 160.55 345.49 161.05Q345.51 161.08 345.53 161.11Q345.72 161.32 345.96 161.44Q346.29 161.62 346.72 161.62Q347.28 161.62 347.72 161.39Q347.82 161.34 347.92 161.27Q348.15 161.12 348.28 160.9Q348.43 160.64 348.43 160.29Q348.43 159.49 348.03 159.11L348.03 159.1Q347.8 158.89 347.53 158.79ZM533.69 171.23Q532.41 171.91 531.34 171.91Q530.47 171.91 529.68 171.65Q528.68 171.32 527.82 170.58Q526.92 169.8 526.45 168.81Q526.12 168.11 526 167.29L525.17 167.29L525.17 172.67L526.09 172.67L526.09 172.65Q526.1 172.36 526.38 172.07Q526.69 171.76 526.92 171.76Q527.07 171.76 528.37 172.41Q529.39 172.92 530.45 173.02Q530.74 173.05 531.04 173.05Q533.82 173.05 535.66 171.74Q535.71 171.7 535.76 171.67Q536.71 170.96 537.17 170.02Q537.63 169.1 537.63 167.94Q537.63 167.26 537.44 166.64Q537.11 165.6 536.22 164.72Q536.06 164.56 535.89 164.41Q534.59 163.24 532.83 162.58Q532.53 162.45 531.67 162.16Q530.81 161.85 530.49 161.72Q530.16 161.58 529.53 161.24Q528.9 160.89 528.67 160.61Q528.45 160.32 528.22 159.85Q528.17 159.74 528.13 159.63Q527.98 159.24 527.98 158.8Q527.98 158.32 528.18 157.93Q528.38 157.53 528.8 157.24Q528.82 157.23 528.83 157.22Q529.65 156.67 530.85 156.67Q531.7 156.67 532.45 156.94Q533.21 157.21 533.88 157.77Q534.69 158.45 535.09 159.32Q535.33 159.86 535.42 160.47L536.26 160.47L536.26 155.9L535.38 155.9Q535.38 156.47 535.13 156.61Q535.05 156.67 534.93 156.67Q534.73 156.67 533.38 156.1Q532.03 155.52 530.73 155.52Q529.12 155.52 527.86 156.18Q527.39 156.42 526.96 156.76Q526.32 157.27 525.94 157.93Q525.4 158.88 525.4 160.13Q525.4 161.31 525.82 162.19Q525.91 162.38 526.02 162.56Q526.42 163.2 527.07 163.68Q527.91 164.29 528.62 164.63Q529.32 164.98 530.43 165.36Q534.67 166.86 534.95 168.88Q534.96 169.02 534.96 169.16Q534.96 169.79 534.7 170.27Q534.39 170.85 533.69 171.23ZM563.79 158.79Q563.59 158.72 563.36 158.72Q563.44 158.42 563.59 158.17Q564.38 156.89 567.25 156.89Q568.76 156.89 569.62 157.64Q569.98 157.94 570.22 158.38Q571.06 159.87 571.06 163.07Q570.29 163.29 568.52 163.69Q566.75 164.09 565.57 164.42Q564.39 164.74 563.05 165.28Q561.72 165.81 561.02 166.61Q560.55 167.14 560.39 167.75Q560.31 168.06 560.31 168.4Q560.31 170.26 561.22 171.37Q562.59 173.05 566.02 173.05Q569.22 173.05 571.41 171.57Q571.53 171.49 571.63 171.42Q571.98 172.09 572.52 172.47Q573.25 172.98 574.33 172.98Q576.28 172.98 577.06 172.49Q577.34 172.31 577.52 172.05Q577.84 171.6 577.84 170.92L577.16 170.92Q577.16 171.01 577.14 171.1Q577.06 171.37 576.75 171.57Q576.59 171.68 576.42 171.74Q576.15 171.83 575.86 171.83Q575.7 171.83 575.56 171.79Q575.18 171.68 574.89 171.27Q574.49 170.69 574.49 169.47L574.49 161.92Q574.49 159.58 573.4 157.98Q573.14 157.61 572.83 157.28Q571.17 155.52 567.63 155.52Q564.62 155.52 562.98 156.63Q562.17 157.17 561.76 157.93Q561.34 158.71 561.34 159.71Q561.34 160.55 561.75 161.05Q561.78 161.08 561.8 161.11Q561.99 161.32 562.22 161.44Q562.56 161.62 562.98 161.62Q563.54 161.62 563.98 161.39Q564.08 161.34 564.18 161.27Q564.41 161.12 564.54 160.9Q564.69 160.64 564.69 160.29Q564.69 159.49 564.29 159.11L564.29 159.1Q564.06 158.89 563.79 158.79ZM632.39 171.37Q634.63 173.05 638.14 173.05Q642.11 173.05 644.25 171.08Q644.49 170.85 644.71 170.6Q645.27 169.97 645.68 169.25Q646.87 167.19 646.87 164.44Q646.87 160.72 645.07 158.42Q644.86 158.15 644.62 157.9Q644.49 157.77 644.35 157.63Q642.11 155.52 637.87 155.52Q633.71 155.52 631.53 157.6Q631.38 157.75 631.24 157.9Q630.71 158.49 630.31 159.15Q629.07 161.19 629.07 163.98Q629.07 167.15 630.53 169.37Q630.94 170 631.47 170.56Q631.9 171 632.39 171.37ZM669.74 171.87L669.74 172.67L677.97 172.67L677.97 171.87Q675.92 171.87 675.57 171.11L675.57 158.49Q676.71 157.49 678.03 157.09Q678.91 156.82 679.88 156.82Q681.46 156.82 682.33 157.6Q683.38 158.56 683.38 160.67L683.38 171.11Q683.04 171.87 680.98 171.87L680.98 172.67L689.21 172.67L689.21 171.87Q687.16 171.87 686.81 171.11L686.81 160.93Q686.81 158.49 685.6 157.18Q685.43 157 685.23 156.83Q683.65 155.52 680.1 155.52Q679.31 155.52 678.56 155.7Q676.97 156.08 675.57 157.27L675.57 155.52Q674.69 155.52 672.58 156.34Q670.46 157.16 669.74 157.16L669.74 158.03Q669.78 158.03 672.14 158.23L672.14 171.11Q671.79 171.87 669.74 171.87ZM401.56 170.54L399.16 170.35L399.16 155.9L393.33 155.9L393.33 156.7Q395.39 156.7 395.73 157.47L395.73 170.08Q394.56 171.11 393.19 171.51Q392.34 171.76 391.42 171.76Q389.83 171.76 388.96 170.97Q387.91 170.01 387.91 167.91L387.91 155.9L382.09 155.9L382.09 156.7Q384.14 156.7 384.49 157.47L384.49 167.64Q384.49 170.08 385.7 171.39Q385.88 171.58 386.07 171.74Q387.65 173.05 391.2 173.05Q391.99 173.05 392.74 172.87Q394.33 172.49 395.73 171.3L395.73 173.05Q396.6 173.05 398.72 172.23Q400.84 171.42 401.56 171.42L401.56 170.54ZM462.7 156.7L462.7 155.9L455.31 155.9L455.31 156.7Q457.36 156.7 457.71 157.47L463.77 172.67L462.13 176.78Q462.01 177.09 461.79 177.26Q461.51 177.47 461.06 177.47Q460.83 177.47 460.37 177.15Q459.91 176.82 459.5 176.82Q459.03 176.82 458.69 177.03Q458.53 177.13 458.41 177.28Q458.14 177.58 458.05 177.94Q458.01 178.12 458.01 178.31Q458.01 178.58 458.09 178.83Q458.22 179.19 458.56 179.49Q458.58 179.52 458.61 179.54Q459.16 179.99 460.07 179.99Q461.1 179.99 462.22 179.17Q463.35 178.35 464.07 176.56L471.73 157.39Q472.04 156.7 474.1 156.7L474.1 155.9L467.84 155.9L467.84 156.7Q469.44 156.7 469.97 157.12L465.64 168.02L461.1 156.85Q461.59 156.7 462.7 156.7ZM269.15 170.42L269.15 158.45Q269.33 158.25 269.54 158.08Q271.15 156.67 273.99 156.67Q274.61 156.67 275.17 156.87Q276.4 157.32 277.26 158.76Q278.53 160.85 278.53 164.21Q278.53 167.76 276.97 169.76Q275.81 171.24 274.36 171.63Q273.85 171.76 273.31 171.76Q270.77 171.76 269.26 170.51Q269.2 170.47 269.15 170.42ZM317.44 162.31L308.98 162.31Q309.21 159.79 310.45 158.23Q311.63 156.75 312.89 156.67Q312.95 156.67 313.02 156.67Q314.88 156.67 315.85 157.6Q316.09 157.83 316.28 158.12Q317.22 159.56 317.44 162.31ZM634.39 169.74Q632.73 167.56 632.73 163.22Q632.73 160.66 633.87 158.79Q633.92 158.71 633.97 158.63Q634.75 157.41 635.85 156.96Q636.49 156.7 637.22 156.7Q639.17 156.7 640.49 157.62Q643.21 159.51 643.21 165.31Q643.21 168.21 641.95 170.07Q641.21 171.16 640.18 171.6Q639.48 171.91 638.64 171.91Q637.5 171.91 636.55 171.49Q635.32 170.96 634.39 169.74ZM354.79 168.4Q354.79 169.62 355.03 170.46Q354.08 171.04 353.06 171.36Q351.8 171.76 350.41 171.76Q349.05 171.76 348.35 171.08Q348.32 171.06 348.3 171.03Q347.59 170.31 347.59 168.48Q347.59 168.19 347.65 167.92Q347.74 167.51 347.97 167.13Q348.35 166.49 348.85 166.12Q349.34 165.74 350.22 165.36Q351.1 164.98 351.72 164.79Q352.36 164.59 353.36 164.32Q354.37 164.05 354.79 163.91L354.79 168.4ZM571.06 168.4Q571.06 169.62 571.29 170.46Q570.35 171.04 569.32 171.36Q568.06 171.76 566.67 171.76Q565.32 171.76 564.61 171.08Q564.59 171.06 564.56 171.03Q563.85 170.31 563.85 168.48Q563.85 168.19 563.91 167.92Q564 167.51 564.24 167.13Q564.62 166.49 565.11 166.12Q565.6 165.74 566.48 165.36Q567.36 164.98 567.99 164.79Q568.62 164.59 569.62 164.32Q570.64 164.05 571.06 163.91L571.06 168.4Z" fill="#FFFFFF" fill-opacity="1.000000" fill-rule="evenodd"/>
	<path id="beauty salon" d="M265.72 151.36Q263.36 151.18 263.31 151.18L263.31 150.3Q264.04 150.3 266.15 149.48Q268.27 148.66 269.15 148.66L269.15 157.16Q271.02 155.36 274.37 155.36Q275.63 155.36 276.86 155.81Q278.11 156.25 279.35 157.18Q280.59 158.11 281.37 159.94Q282.15 161.78 282.15 164.21Q282.15 168.48 279.77 170.76Q277.38 173.05 273.53 173.05Q270.79 173.05 269 171.6Q266.91 173.05 265.72 173.05L265.72 151.36ZM269.15 158.45L269.15 170.42Q270.68 171.76 273.31 171.76Q275.4 171.76 276.97 169.76Q278.53 167.76 278.53 164.21Q278.53 160.85 277.26 158.76Q276.01 156.67 273.99 156.67Q270.79 156.67 269.15 158.45ZM308.94 163.49Q308.98 166.69 310.79 169.15Q312.6 171.6 314.85 171.6Q318.17 171.6 320.18 169.09L321.1 169.55Q320 171.38 318.22 172.22Q316.45 173.05 313.55 173.05Q312.11 173.05 310.77 172.62Q309.44 172.18 308.14 171.17Q306.85 170.16 306.09 168.18Q305.32 166.2 305.32 163.45Q305.32 160.09 307.4 157.81Q309.47 155.52 313.18 155.52Q317.22 155.52 319.2 157.79Q321.18 160.05 321.18 163.49L308.94 163.49ZM308.98 162.31L317.44 162.31Q317.22 159.56 316.28 158.12Q315.35 156.67 313.02 156.67Q311.69 156.67 310.45 158.23Q309.21 159.79 308.98 162.31ZM347.1 158.72Q347.63 158.72 348.03 159.1Q348.43 159.49 348.43 160.29Q348.43 160.93 347.92 161.27Q347.4 161.62 346.72 161.62Q345.99 161.62 345.53 161.11Q345.08 160.59 345.08 159.71Q345.08 157.73 346.72 156.63Q348.35 155.52 351.37 155.52Q354.91 155.52 356.56 157.28Q358.23 159.03 358.23 161.92L358.23 169.47Q358.23 170.69 358.63 171.27Q359.03 171.83 359.59 171.83Q360.09 171.83 360.49 171.57Q360.9 171.3 360.9 170.92L361.58 170.92Q361.58 171.98 360.8 172.49Q360.01 172.98 358.07 172.98Q356.17 172.98 355.37 171.42Q353.12 173.05 349.76 173.05Q344.05 173.05 344.05 168.4Q344.05 167.41 344.75 166.61Q345.46 165.81 346.79 165.28Q348.12 164.74 349.3 164.42Q350.49 164.09 352.25 163.69Q354.03 163.29 354.79 163.07Q354.79 159.87 353.96 158.38Q353.12 156.89 350.99 156.89Q347.55 156.89 347.1 158.72ZM355.03 170.46Q354.79 169.62 354.79 168.4L354.79 163.91Q354.37 164.05 353.36 164.32Q352.36 164.59 351.72 164.79Q351.1 164.98 350.22 165.36Q349.34 165.74 348.85 166.12Q348.35 166.49 347.97 167.13Q347.59 167.76 347.59 168.48Q347.59 170.31 348.3 171.03Q349.01 171.76 350.41 171.76Q352.92 171.76 355.03 170.46ZM399.16 170.35Q399.16 170.35 401.56 170.54L401.56 171.42Q400.84 171.42 398.72 172.23Q396.6 173.05 395.73 173.05L395.73 171.3Q393.67 173.05 391.2 173.05Q387.65 173.05 386.07 171.74Q384.49 170.42 384.49 167.64L384.49 157.47Q384.14 156.7 382.09 156.7L382.09 155.9L387.91 155.9L387.91 167.91Q387.91 171.76 391.42 171.76Q393.82 171.76 395.73 170.08L395.73 157.47Q395.39 156.7 393.33 156.7L393.33 155.9L399.16 155.9L399.16 170.35ZM429.46 150.38L429.46 155.9L432.74 155.9L432.74 157.05L429.46 157.05L429.46 169.16Q429.46 170.35 429.88 170.98Q430.3 171.6 431.44 171.6Q432.13 171.6 432.84 170.94Q433.54 170.27 433.8 169.09L434.73 169.55Q433.93 173.05 430.15 173.05Q425.8 173.05 425.8 168.86L425.8 157.05L423.13 157.05L423.13 155.9Q424.93 155.9 426.37 154.41Q427.82 152.92 427.82 150.38L429.46 150.38ZM462.7 155.9L462.7 156.7Q461.59 156.7 461.1 156.85L465.64 168.02L469.97 157.12Q469.44 156.7 467.84 156.7L467.84 155.9L474.1 155.9L474.1 156.7Q472.04 156.7 471.73 157.39L464.07 176.56Q463.35 178.35 462.22 179.17Q461.1 179.99 460.07 179.99Q459.11 179.99 458.56 179.49Q458.01 179 458.01 178.31Q458.01 177.74 458.41 177.28Q458.81 176.82 459.5 176.82Q459.91 176.82 460.37 177.15Q460.83 177.47 461.06 177.47Q461.86 177.47 462.13 176.78L463.77 172.67L457.71 157.47Q457.36 156.7 455.31 156.7L455.31 155.9L462.7 155.9ZM531.34 171.91Q532.41 171.91 533.69 171.23Q534.96 170.54 534.96 169.16Q534.96 166.96 530.43 165.36Q529.32 164.98 528.62 164.63Q527.91 164.29 527.07 163.68Q526.24 163.07 525.82 162.19Q525.4 161.31 525.4 160.13Q525.4 158 526.96 156.76Q528.52 155.52 530.73 155.52Q532.03 155.52 533.38 156.1Q534.73 156.67 534.93 156.67Q535.38 156.67 535.38 155.9L536.26 155.9L536.26 160.47L535.42 160.47Q535.2 158.87 533.88 157.77Q532.56 156.67 530.85 156.67Q529.63 156.67 528.8 157.24Q527.98 157.81 527.98 158.8Q527.98 159.37 528.22 159.85Q528.45 160.32 528.67 160.61Q528.9 160.89 529.53 161.24Q530.16 161.58 530.49 161.72Q530.81 161.85 531.67 162.16Q532.53 162.45 532.83 162.58Q534.81 163.33 536.22 164.72Q537.63 166.11 537.63 167.94Q537.63 170.27 535.76 171.67Q533.89 173.05 531.04 173.05Q529.67 173.05 528.37 172.41Q527.07 171.76 526.92 171.76Q526.69 171.76 526.38 172.07Q526.09 172.36 526.09 172.67L525.17 172.67L525.17 167.29L526 167.29Q526.27 169.24 527.82 170.58Q529.36 171.91 531.34 171.91ZM563.36 158.72Q563.89 158.72 564.29 159.1Q564.69 159.49 564.69 160.29Q564.69 160.93 564.18 161.27Q563.67 161.62 562.98 161.62Q562.25 161.62 561.8 161.11Q561.34 160.59 561.34 159.71Q561.34 157.73 562.98 156.63Q564.62 155.52 567.63 155.52Q571.17 155.52 572.83 157.28Q574.49 159.03 574.49 161.92L574.49 169.47Q574.49 170.69 574.89 171.27Q575.29 171.83 575.86 171.83Q576.35 171.83 576.75 171.57Q577.16 171.3 577.16 170.92L577.84 170.92Q577.84 171.98 577.06 172.49Q576.28 172.98 574.33 172.98Q572.43 172.98 571.63 171.42Q569.38 173.05 566.02 173.05Q560.31 173.05 560.31 168.4Q560.31 167.41 561.02 166.61Q561.72 165.81 563.05 165.28Q564.39 164.74 565.57 164.42Q566.75 164.09 568.52 163.69Q570.29 163.29 571.06 163.07Q571.06 159.87 570.22 158.38Q569.38 156.89 567.25 156.89Q563.82 156.89 563.36 158.72ZM571.29 170.46Q571.06 169.62 571.06 168.4L571.06 163.91Q570.64 164.05 569.62 164.32Q568.62 164.59 567.99 164.79Q567.36 164.98 566.48 165.36Q565.6 165.74 565.11 166.12Q564.62 166.49 564.24 167.13Q563.85 167.76 563.85 168.48Q563.85 170.31 564.56 171.03Q565.27 171.76 566.67 171.76Q569.19 171.76 571.29 170.46ZM598.5 172.67L598.5 171.87Q600.56 171.87 600.9 171.11L600.9 151.36Q598.54 151.18 598.5 151.18L598.5 150.3Q599.23 150.3 601.34 149.48Q603.45 148.66 604.34 148.66L604.34 171.11Q604.68 171.87 606.74 171.87L606.74 172.67L598.5 172.67ZM632.73 163.22Q632.73 167.56 634.39 169.74Q636.04 171.91 638.64 171.91Q640.69 171.91 641.95 170.07Q643.21 168.21 643.21 165.31Q643.21 156.7 637.22 156.7Q635.2 156.7 633.97 158.63Q632.73 160.55 632.73 163.22ZM638.14 173.05Q633.87 173.05 631.47 170.56Q629.07 168.06 629.07 163.98Q629.07 160.29 631.24 157.9Q633.42 155.52 637.87 155.52Q642.37 155.52 644.62 157.9Q646.87 160.29 646.87 164.44Q646.87 168.14 644.71 170.6Q642.56 173.05 638.14 173.05ZM669.74 172.67L669.74 171.87Q671.79 171.87 672.14 171.11L672.14 158.23Q669.78 158.03 669.74 158.03L669.74 157.16Q670.46 157.16 672.58 156.34Q674.69 155.52 675.57 155.52L675.57 157.27Q677.63 155.52 680.1 155.52Q683.65 155.52 685.23 156.83Q686.81 158.15 686.81 160.93L686.81 171.11Q687.16 171.87 689.21 171.87L689.21 172.67L680.98 172.67L680.98 171.87Q683.04 171.87 683.38 171.11L683.38 160.67Q683.38 156.82 679.88 156.82Q677.47 156.82 675.57 158.49L675.57 171.11Q675.92 171.87 677.97 171.87L677.97 172.67L669.74 172.67Z" stroke="#FFFFFF" stroke-opacity="0" stroke-width="0.794060"/>
	<path id="Line 1" d="M214.64 3.19L214.62 3.17C214.62 1.39 216.02 0 217.79 0C219.57 0 220.97 1.39 220.97 3.17L220.95 3.19L214.64 3.19ZM220.95 234.22L220.97 234.24C220.97 236.02 219.57 237.42 217.79 237.42C216.02 237.42 214.62 236.02 214.62 234.24L214.64 234.22L220.95 234.22Z" fill="#FFFFFF" fill-opacity="1.000000" fill-rule="nonzero"/>
	<path id="Line 1" d="M217.79 3.17L217.79 234.24" stroke="#FFFFFF" stroke-opacity="1.000000" stroke-width="6.352478" stroke-linecap="round"/>
</svg>
